<svg version="1.2" baseProfile="tiny-ps" xmlns="http://www.w3.org/2000/svg" viewBox="0 0 1592 413" width="1592" height="413">
	<title>download (2)-svg</title>
	<defs>
		<clipPath clipPathUnits="userSpaceOnUse" id="cp1">
			<path d="M0.01 412.96L1591.95 412.96L1591.95 0.98L0.01 0.98L0.01 412.96Z" />
		</clipPath>
	</defs>
	<style>
		tspan { white-space:pre }
		.shp0 { fill: #003781 } 
	</style>
	<g id="Allianz">
		<path id="A" fill-rule="evenodd" class="shp0" d="M0 325.13L65.65 125.88C71.12 113.3 71.12 109.84 71.12 104.55C71.12 96.17 65.65 92.7 54.71 92.7L47.41 92.7L47.41 71.74L138.59 71.74C155 71.74 162.29 76.66 165.94 91.98L231.59 325.13L169.59 325.13L151.35 263.69L76.59 263.69L58.35 325.13M116.71 122.42L85.7 223.22L144.06 223.22L116.71 122.42Z" />
		<path id="l" class="shp0" d="M310 325.13L310 90.34C310 78.12 302.7 71.74 289.94 71.74L233.41 71.74L233.41 92.7L237.06 92.7C248 92.7 253.47 97.26 253.47 107.1L253.47 325.13" />
		<path id="l1" class="shp0" d="M412.12 325.13L412.12 90.34C412.12 78.12 404.82 71.74 392.06 71.74L335.53 71.74L335.53 92.7L339.17 92.7C350.12 92.7 355.59 97.26 355.59 107.1L355.59 325.13" />
		<path id="i" fill-rule="evenodd" class="shp0" d="M516.06 94.16C516.06 77.39 503.29 67.55 483.23 67.55C461.35 67.55 450.41 77.39 450.41 94.16C450.41 111.3 461.35 121.32 483.23 121.32C503.29 121.32 516.06 111.3 516.06 94.16ZM514.23 325.13L514.23 154.14C514.23 142.29 506.94 135.36 496 135.36L439.47 135.36L439.47 155.96L443.11 155.96C454.06 155.96 457.7 160.52 457.7 170.91L457.7 325.13L514.23 325.13Z" />
		<path id="a" fill-rule="evenodd" class="shp0" d="M556.17 152.68C572.58 144.11 579.88 141.56 594.47 138.1C609.06 134.63 623.64 132.81 640.05 132.81C687.47 132.81 703.88 149.21 703.88 197.7L703.88 290.86C703.88 300.7 709.35 305.62 720.29 305.62L722.11 305.62L722.11 325.13L667.41 325.13C656.47 325.13 651 319.48 651 307.63L651 301.79C640.05 311.82 636.41 314.01 627.29 318.2C618.17 324.03 605.41 326.95 592.64 326.95C559.82 326.95 545.23 309.81 545.23 273.9C545.23 245.28 556.17 227.05 579.88 217.57C587.17 214.48 594.47 212.11 601.76 210.28C616.35 207.18 623.64 205.73 649.17 201.53L649.17 196.79C649.17 180.02 643.7 174.01 625.47 174.01C621.82 174.01 614.53 174.73 609.06 175.46C598.11 177.47 589 179.66 574.41 185.49L568.94 187.68M614.53 242C601.76 246.92 598.11 252.94 598.11 268.62C598.11 282.83 603.58 288.12 614.53 288.12C625.47 288.12 638.23 281.92 649.17 270.99L649.17 233.07C632.76 235.8 623.64 238.17 614.53 242Z" />
		<path id="n" fill-rule="evenodd" class="shp0" d="M807.82 325.13L807.82 196.43C820.58 184.58 829.7 180.02 842.47 180.02C855.23 180.02 858.88 185.49 858.88 204.81L858.88 325.13L915.41 325.13L915.41 195.7C915.41 169.08 911.76 157.6 904.47 147.57C895.35 137.73 884.41 133.17 867.99 133.17C846.11 133.17 829.7 141.19 804.17 163.25L804.17 153.04C804.17 141.19 798.7 135.36 787.76 135.36L733.05 135.36L733.05 155.96L734.88 155.96C745.82 155.96 751.29 160.52 751.29 170.91L751.29 325.13" />
		<g id="z">
			<path id="Layer" class="shp0" d="M1090.48 288.82L1006.6 288.82L1086.83 174.34L1086.83 135.33L966.48 135.33C951.89 135.33 946.42 141.17 946.42 155.2L946.42 189.66L966.48 189.66L966.48 185.83C966.48 175.44 971.95 171.24 982.89 171.24L1026.66 171.24L944.6 285.72L944.6 325.1L1090.48 325.1" />
		</g>
		<g id="Eagle">
			<g id="Clip-Path" clip-path="url(#cp1)">
				<g id="Layer">
					<path id="path37647" fill-rule="evenodd" class="shp0" d="M1385.89 412.96C1269.18 412.96 1179.83 324.73 1179.83 206.79C1179.83 89.21 1269.18 0.98 1385.89 0.98C1504.42 0.98 1591.95 89.21 1591.95 206.79C1591.95 324.73 1504.42 412.96 1385.89 412.96ZM1385.89 33.07C1287.42 33.07 1214.48 106.35 1214.48 206.79C1214.48 307.23 1287.42 380.52 1385.89 380.52C1484.36 380.52 1557.3 307.23 1557.3 206.79C1557.3 106.35 1484.36 33.07 1385.89 33.07ZM1276.48 314.71L1276.48 152.65C1276.48 136.24 1283.77 129.68 1300.18 129.68L1329.36 129.68L1329.36 314.71L1276.48 314.71ZM1358.54 314.71L1358.54 114.73C1358.54 104.16 1354.89 100.7 1345.77 100.7L1340.3 100.7L1340.3 77L1389.54 77C1405.95 77 1413.24 82.65 1413.24 99.97L1413.24 314.71L1358.54 314.71ZM1442.42 129.68L1471.59 129.68C1488.01 129.68 1495.3 136.24 1495.3 152.65L1495.3 314.71L1442.42 314.71L1442.42 129.68Z" />
				</g>
			</g>
		</g>
	</g>
</svg>