<svg xmlns="http://www.w3.org/2000/svg" viewBox="0 0 1988 641.2"><style>.st0{fill:#004077}</style><path class="st0" d="M39.3 481.5v34.1h54.8v24.2H39.3v56.3H12.2V457.3h91.4v24.2H39.3zm138 114.6v-8.8c-3.4 3.4-6.9 5.8-10.6 7.4-3.7 1.6-8.5 2.3-14.3 2.3-11.3 0-20-3-25.9-9-2.7-2.9-4.8-6.2-6.2-10.1-1.4-3.9-2.1-8.1-2.1-12.7 0-4 .7-7.8 2.1-11.4 1.4-3.6 3.6-6.7 6.4-9.4 2.9-2.7 6.5-4.8 10.8-6.3 4.4-1.6 9.5-2.3 15.3-2.3h24v-5.1c0-5.6-1.5-9.6-4.4-12.2-2.9-2.5-7.8-3.8-14.5-3.8-4.9 0-8.8.7-11.5 1.9-2.7 1.3-5.4 3.4-8 6.4l-16.2-15.8c4.9-5.5 10.2-9.2 15.7-11.1 5.5-1.9 12.5-2.9 21-2.9 14.3 0 25.1 3 32.5 9 7.3 6 11 14.9 11 26.9V596h-25.1zm-.5-42.9h-20.1c-4.6 0-8.1 1-10.5 3-2.5 2-3.7 4.8-3.7 8.5 0 3.5 1.2 6.3 3.6 8.5 2.4 2.1 6.1 3.2 11 3.2 3.5 0 6.5-.3 9-.8s4.8-1.9 7-4.1c2.5-2.3 3.7-6.6 3.7-12.9v-5.4zm170.7 42.9v-61.4c0-3.5-.5-6.4-1.5-8.8-1-2.3-2.3-4.2-3.9-5.7-1.6-1.4-3.4-2.5-5.4-3.1-2-.6-4-1-5.9-1-1.9 0-3.9.3-5.9 1-2 .7-3.8 1.7-5.4 3-1.6 1.4-2.9 3.2-4 5.5-1 2.3-1.6 5.1-1.6 8.5v62h-25.5v-61.4c0-3.5-.5-6.4-1.5-8.8-1-2.3-2.3-4.2-3.9-5.7-1.6-1.4-3.4-2.5-5.5-3.1-2-.6-4-1-5.9-1-2 0-3.9.3-5.9 1-2 .7-3.8 1.7-5.5 3.1-1.6 1.4-3 3.3-4 5.7-1 2.3-1.6 5.3-1.6 8.8v61.4h-25.3V494.6h24.8v9.4c3.4-3.4 7.3-6 11.7-7.8 4.4-1.8 9-2.7 13.7-2.7 11.7 0 20.7 4.3 26.9 12.9 4.3-4.5 8.9-7.8 13.7-9.8 4.8-2 10.4-3 16.8-3 5.1 0 9.8.8 14.2 2.3 4.4 1.6 8 3.8 10.8 6.6 4.2 4.2 7.1 8.6 8.7 13.4 1.6 4.7 2.4 9.9 2.4 15.5v64.9h-25.5zm52.3-118.9v-20.7h26.1v20.7h-26.1zm.3 118.9V494.6h25.5v101.6h-25.5zm82.5 0c-5.2 0-9.7-.8-13.5-2.5-3.8-1.7-6.9-3.9-9.3-6.6s-4.2-5.8-5.3-9.3c-1.1-3.4-1.7-7-1.7-10.6V457.3h25.5v108.2c0 3 .7 5.3 2 6.8 1.4 1.6 3.7 2.3 6.9 2.3h9.7V596h-14.3zm34.1-118.9v-20.7h26.1v20.7h-26.1zm.4 118.9V494.6h25.5v101.6h-25.5zm73.5-42.9c0 6.6 1.9 12.1 5.8 16.3 3.8 4.2 9.3 6.3 16.5 6.3 5.6 0 10-.8 13.3-2.3 3.2-1.6 6.5-4 9.7-7.2l15.4 15c-2.6 2.6-5.2 4.9-7.8 6.8-2.6 2-5.4 3.6-8.5 5-3.1 1.4-6.4 2.4-10 3.1-3.6.7-7.7 1.1-12.3 1.1-6 0-11.8-.8-17.4-2.3-5.7-1.6-10.7-4.3-15-8.3-4.4-4-7.9-9.3-10.5-16-2.7-6.7-4-15.2-4-25.4 0-8.3 1.1-15.7 3.2-22.1 2.1-6.4 5.2-11.9 9.1-16.3 3.9-4.4 8.5-7.8 13.9-10 5.4-2.3 11.4-3.4 18-3.4 7 0 13.3 1.2 18.8 3.7s10.2 5.8 13.9 10.1c3.8 4.3 6.6 9.4 8.6 15.3 1.9 5.9 2.9 12.4 2.9 19.4v11.3h-63.6zm38.6-17.3c-.1-2.2-.4-4.1-.7-5.8-.3-1.6-.9-3.3-1.7-5.2-1.4-3-3.5-5.5-6.3-7.5s-6.3-3-10.6-3-7.8 1-10.6 3-4.9 4.5-6.3 7.5c-.8 1.8-1.3 3.5-1.7 5.2-.3 1.6-.6 3.5-.7 5.8h38.6zm107.4 60.2v-61.4c0-3.5-.5-6.4-1.5-8.8-1-2.3-2.3-4.2-3.9-5.7-1.6-1.4-3.4-2.5-5.5-3.1-2-.6-4-1-5.9-1-2 0-3.9.3-5.9 1-2 .7-3.8 1.7-5.5 3.1-1.6 1.4-3 3.3-4 5.7-1 2.3-1.6 5.3-1.6 8.8v61.4h-25.3V494.6h24.8v9.4c3.4-3.5 7.3-6.1 11.7-7.9 4.4-1.8 9-2.6 13.7-2.6 5.1 0 9.6.8 13.7 2.3 4 1.6 7.5 3.8 10.4 6.6 4.2 4.2 6.9 8.6 8.3 13.4 1.4 4.7 2.1 9.9 2.1 15.5v64.9h-25.6zm96.5 0h-19.9l-37.4-101.6h26.7l20.7 62.8 20.5-62.8h26.7l-37.3 101.6zm72.1-42.9c0 6.6 1.9 12.1 5.8 16.3 3.8 4.2 9.3 6.3 16.5 6.3 5.6 0 10-.8 13.3-2.3 3.2-1.6 6.5-4 9.7-7.2l15.4 15c-2.6 2.6-5.2 4.9-7.8 6.8-2.6 2-5.4 3.6-8.5 5-3.1 1.4-6.4 2.4-10 3.1-3.6.7-7.7 1.1-12.3 1.1-6 0-11.8-.8-17.4-2.3-5.7-1.6-10.7-4.3-15-8.3-4.4-4-7.9-9.3-10.5-16-2.7-6.7-4-15.2-4-25.4 0-8.3 1.1-15.7 3.2-22.1 2.1-6.4 5.2-11.9 9.1-16.3 3.9-4.4 8.5-7.8 13.9-10 5.4-2.3 11.4-3.4 18-3.4 7 0 13.3 1.2 18.8 3.7s10.2 5.8 13.9 10.1c3.8 4.3 6.6 9.4 8.6 15.3 1.9 5.9 2.9 12.4 2.9 19.4v11.3h-63.6zm38.6-17.3c-.1-2.2-.4-4.1-.7-5.8-.3-1.6-.9-3.3-1.7-5.2-1.4-3-3.5-5.5-6.3-7.5s-6.3-3-10.6-3-7.8 1-10.6 3-4.9 4.5-6.3 7.5c-.8 1.8-1.3 3.5-1.7 5.2-.3 1.6-.6 3.5-.7 5.8h38.6zm103.5-13.7c-2-1.9-3.9-3.4-5.9-4.5-1.9-1-4.5-1.6-7.6-1.6-2 0-3.9.4-5.9 1.1-1.9.7-3.7 1.9-5.3 3.4-1.6 1.6-2.8 3.5-3.8 5.8s-1.5 5.1-1.5 8.4V596H992V494.6h24.8v9.7c2.5-3 6-5.6 10.5-7.7 4.5-2.1 9.5-3.2 15-3.2 4.9 0 9.3.7 13.1 2.1 3.8 1.4 7.4 3.9 10.9 7.4l-19 19.3zm109.9 41.9c0 5.6-1.1 10.5-3.3 14.6-2.2 4.2-5.3 7.6-9.2 10.3-3.9 2.7-8.5 4.8-13.7 6.1-5.3 1.4-10.9 2-16.9 2-4 0-7.9-.2-11.7-.5-3.8-.3-7.5-1-11.1-2-3.6-1-7.2-2.5-10.5-4.4-3.4-1.9-6.7-4.4-9.9-7.7l16.6-16.6c4.2 4.2 8.7 6.8 13.7 7.9 5 1.1 9.5 1.7 13.4 1.7 2.2 0 4.4-.2 6.5-.6 2.1-.4 4.1-1 5.8-1.9 1.7-.8 3.1-1.9 4.1-3.2 1-1.3 1.6-2.9 1.6-4.9 0-2.6-.8-4.7-2.3-6.3-1.6-1.6-4.4-2.6-8.4-3l-16-1.6c-9.2-.9-16.5-3.5-21.7-7.9-5.3-4.4-7.9-11.2-7.9-20.6 0-5.3 1.1-10 3.2-14s5-7.4 8.7-10.1c3.6-2.7 7.8-4.8 12.5-6.1 4.7-1.4 9.6-2 14.8-2 7.9 0 15.1.8 21.6 2.5 6.5 1.7 12.2 4.8 17.2 9.4l-15.6 15.8c-3-2.6-6.6-4.4-10.7-5.4-4.2-1-8.5-1.5-12.9-1.5-5.1 0-8.7 1-11 2.9-2.3 2-3.4 4.2-3.4 6.8 0 1.8.6 3.6 1.9 5.5 1.2 1.8 4.1 2.9 8.7 3.3l16 1.6c10.1 1 17.7 4.1 22.7 9.3 4.7 5.2 7.2 12.1 7.2 20.6zm20.9-86.9v-20.7h26.1v20.7h-26.1zm.4 118.9V494.6h25.5v101.6h-25.5zm127.7-12.7c-4.5 4.7-9.5 8.2-14.9 10.4-5.4 2.3-11.6 3.4-18.6 3.4-5.1 0-10.3-.8-15.7-2.3-5.4-1.6-10.3-4.3-14.7-8.3-4.4-4-8-9.3-10.9-16-2.9-6.7-4.3-15.2-4.3-25.4 0-10.3 1.4-18.7 4.3-25.4 2.9-6.7 6.5-12 10.9-15.9 4.4-3.9 9.3-6.6 14.7-8.2 5.4-1.6 10.6-2.3 15.7-2.3 7 0 13.2 1.1 18.6 3.3 5.4 2.2 10.4 5.7 14.9 10.3l-17.2 17.2c-2.6-2.9-5.1-4.9-7.6-6.1-2.5-1.2-5.4-1.9-8.8-1.9-6 0-10.8 2.2-14.4 6.6-1.9 2.5-3.4 5.5-4.3 9-.9 3.5-1.4 8-1.4 13.4 0 10.4 1.9 17.9 5.7 22.6 3.6 4.4 8.4 6.6 14.4 6.6 3.4 0 6.3-.6 8.8-1.9 2.5-1.2 5-3.3 7.6-6.1l17.2 17zm77.7 12.7v-62c0-3.4-.5-6.2-1.4-8.5-1-2.3-2.2-4.1-3.8-5.6-1.5-1.4-3.3-2.4-5.3-3-2-.6-4-.9-5.9-.9s-3.9.3-5.8 1-3.7 1.7-5.2 3c-1.6 1.4-2.8 3.2-3.8 5.5s-1.5 5.1-1.5 8.5v62h-25.5V457.3h25.5l-.1 46.6c3.4-3.5 7.2-6.1 11.3-7.9 4.2-1.8 8.5-2.6 13.1-2.6 5.6 0 10.5.9 14.8 2.7 4.2 1.8 7.8 4.4 10.6 7.7 2.9 3.3 5 7.2 6.4 11.8 1.4 4.5 2.2 9.5 2.2 14.8v65.7h-25.6zm72.5-42.9c0 6.6 1.9 12.1 5.8 16.3 3.8 4.2 9.3 6.3 16.5 6.3 5.6 0 10-.8 13.3-2.3 3.2-1.6 6.5-4 9.7-7.2l15.4 15c-2.6 2.6-5.2 4.9-7.8 6.8-2.6 2-5.4 3.6-8.5 5-3.1 1.4-6.4 2.4-10 3.1-3.6.7-7.7 1.1-12.3 1.1-6 0-11.8-.8-17.4-2.3-5.7-1.6-10.7-4.3-15-8.3-4.4-4-7.9-9.3-10.5-16-2.7-6.7-4-15.2-4-25.4 0-8.3 1.1-15.7 3.2-22.1 2.1-6.4 5.2-11.9 9.1-16.3 3.9-4.4 8.5-7.8 13.9-10 5.4-2.3 11.4-3.4 18-3.4 7 0 13.3 1.2 18.8 3.7s10.2 5.8 13.9 10.1c3.8 4.3 6.6 9.4 8.6 15.3 1.9 5.9 2.9 12.4 2.9 19.4v11.3h-63.6zm38.6-17.3c-.1-2.2-.4-4.1-.7-5.8-.3-1.6-.9-3.3-1.7-5.2-1.4-3-3.5-5.5-6.3-7.5s-6.3-3-10.6-3-7.8 1-10.6 3-4.9 4.5-6.3 7.5c-.8 1.8-1.3 3.5-1.7 5.2-.3 1.6-.6 3.5-.7 5.8h38.6zm103.5-13.7c-2-1.9-3.9-3.4-5.8-4.5-1.9-1-4.5-1.6-7.6-1.6-2 0-3.9.4-5.9 1.1-2 .7-3.7 1.9-5.3 3.4-1.6 1.6-2.8 3.5-3.8 5.8s-1.5 5.1-1.5 8.4V596h-25.3V494.6h24.8v9.7c2.5-3 6-5.6 10.5-7.7 4.5-2.1 9.5-3.2 15-3.2 4.9 0 9.3.7 13.1 2.1 3.8 1.4 7.4 3.9 10.9 7.4l-19.1 19.3zm92.1 73.9v-9.4c-3.4 3.5-7.3 6.1-11.7 7.9-4.4 1.8-9 2.6-13.6 2.6-5.1 0-9.6-.8-13.6-2.3-4-1.6-7.5-3.8-10.3-6.6-4.2-4.2-6.9-8.6-8.3-13.4-1.4-4.7-2-9.9-2-15.5v-64.9h25.5V556c0 3.5.5 6.4 1.5 8.8 1 2.3 2.3 4.2 3.9 5.7 1.6 1.4 3.4 2.5 5.4 3.1 2 .7 4 1 5.9 1 1.9 0 3.9-.3 5.9-1 2-.6 3.8-1.7 5.4-3.1 1.6-1.4 2.9-3.3 4-5.7 1-2.3 1.6-5.3 1.6-8.8v-61.4h25.5v101.6h-25.1zm112.2 0v-61.4c0-3.5-.5-6.4-1.5-8.8-1-2.3-2.3-4.2-3.9-5.7-1.6-1.4-3.4-2.5-5.5-3.1-2-.6-4-1-5.9-1-1.9 0-3.9.3-5.9 1-2 .7-3.8 1.7-5.5 3.1-1.6 1.4-3 3.3-4 5.7-1 2.3-1.6 5.3-1.6 8.8v61.4h-25.3V494.6h24.8v9.4c3.4-3.5 7.3-6.1 11.7-7.9 4.4-1.8 9-2.6 13.7-2.6 5.1 0 9.6.8 13.7 2.3 4 1.6 7.5 3.8 10.4 6.6 4.2 4.2 6.9 8.6 8.3 13.4 1.4 4.7 2.1 9.9 2.1 15.5v64.9h-25.6zm132.4-3.7c0 6.1-1 11.7-3.1 16.9-2.1 5.1-5.1 9.6-9 13.4-3.9 3.8-8.6 6.7-14 8.8-5.5 2.1-11.6 3.1-18.5 3.1-7.8 0-14.6-.9-20.3-2.8-5.7-1.9-11.2-5.4-16.6-10.4l15.8-16c2.9 2.7 5.8 4.7 8.9 5.9 3 1.2 6.7 1.9 11 1.9 3.8 0 7-.6 9.6-1.9 2.6-1.2 4.7-2.8 6.3-4.8 1.6-1.9 2.8-4.2 3.5-6.7.7-2.5 1.1-5.1 1.1-7.7v-10.3c-3.4 3.8-7 6.4-10.9 7.9-3.9 1.5-8.3 2.2-13.3 2.2-4.9 0-9.5-.8-13.7-2.3-4.2-1.6-7.7-3.8-10.5-6.6-4.8-4.8-7.7-10.5-8.8-17.2-1-6.6-1.6-14.4-1.6-23.2 0-8.8.5-16.5 1.6-23.1 1-6.6 4-12.2 8.8-17.1 2.9-2.9 6.4-5.1 10.6-6.6 4.2-1.6 8.8-2.3 13.7-2.3 5.5 0 10.1.8 13.8 2.4 3.8 1.6 7.4 4.4 10.9 8.3v-9.6h24.6v97.8zm-25.4-49.9c0-3.4-.2-6.7-.5-9.8-.3-3.2-1.1-6-2.2-8.4-1.2-2.4-2.9-4.4-5-5.8-2.2-1.5-5.2-2.2-8.9-2.2s-6.7.8-8.9 2.2c-2.2 1.5-3.8 3.4-4.9 5.8-1.1 2.4-1.8 5.2-2.1 8.4-.3 3.2-.5 6.5-.5 9.8 0 3.4.2 6.7.5 9.8.3 3.2 1 6 2.1 8.5s2.8 4.5 4.9 5.9c2.2 1.5 5.2 2.2 8.9 2.2s6.7-.7 8.9-2.2c2.2-1.5 3.9-3.5 5-5.9 1.2-2.5 1.9-5.3 2.2-8.5.4-3.1.5-6.4.5-9.8z" id="Familienversicherung"/><path class="st0" d="M139.2 352.5c-14.1 15.3-31.5 22.1-55.1 22.1H12.2V164.9h71.9c23.6 0 40.9 6.8 55.1 22.1 18.6 20 18.6 50.7 18.6 82.8s-.1 62.7-18.6 82.7zm-17.7-152.3c-10.6-11.8-25.3-15.3-41.2-15.3H34.6v169.7h45.7c15.9 0 30.6-3.5 41.2-15.3 13.5-14.4 13.8-40.4 13.8-69.5.1-29.2-.2-55.1-13.8-69.6zm89 174.4V164.9h130.2v20H232.8v73.9h91.9v20h-91.9v75.7h107.8v20H210.5zm246.8 1.8c-42.4 0-73.1-29.2-73.1-71V164.9h22.4v138.7c0 31.8 20 52.7 50.7 52.7 30.6 0 51-20.9 51-52.7V164.9h22.4v140.5c-.1 41.8-31 71-73.4 71zm192.6-191.5v189.7h-22.4V184.9h-60.7v-20h143.7v20h-60.6zm153.7 191.5c-31.2 0-52.1-8-71.6-27.7l15-15c17.4 17.4 33.6 22.7 57.1 22.7 30.9 0 49.8-14.1 49.8-38.9 0-11.2-3.2-20-10.3-26.2-6.5-5.9-12.4-8-27.4-10.3l-24.4-3.5c-16.5-2.7-28.9-7.7-38.3-15.9-10.6-9.4-16.2-22.4-16.2-39.5 0-35.6 25.6-58.9 67.2-58.9 26.8 0 44.5 7.1 62.4 23l-14.4 14.4c-12.7-12.1-27.1-18.3-48.9-18.3-28.3 0-44.5 15.6-44.5 39.2 0 10.3 2.9 18.9 9.4 24.4 6.5 5.6 16.5 9.1 27.4 10.9l24.4 3.8c19.4 2.9 28.6 6.5 38 15 11.2 9.7 17.7 23.9 17.7 41.2.1 36.9-28.5 59.6-72.4 59.6zm184.7 0c-21.8 0-39.5-7.7-52.4-20.6-19.7-19.7-20.9-38-20.9-86s1.2-66.3 20.9-86c13-13 30.6-20.6 52.4-20.6 38 0 65.4 23.3 72.8 62.4h-23c-5.6-25.9-23.6-42.4-49.8-42.4-14.1 0-26.5 5-36.2 14.7-13.3 13.5-14.7 28.9-14.7 71.9 0 43 1.5 58.3 14.7 71.9 9.7 9.7 22.1 14.7 36.2 14.7 26.2 0 44.8-16.5 50.4-42.4h22.4c-7.4 39.1-35.1 62.4-72.8 62.4zm244.2-1.8v-95.7h-99.6v95.7h-22.4V164.9h22.4v94h99.6v-94h22.4v209.7h-22.4zm83 0V164.9h130.2v20h-107.8v73.9h91.9v20h-91.9v75.7h107.8v20h-130.2z" id="Deutsche"/><g id="Bildmarke"><path class="st0" d="M1923 184.4L1755.2 16.6c-7.9-7.9-18.4-12.2-29.5-12.2-11.2 0-21.7 4.3-29.5 12.2l-167.8 167.8c-8.1 8.1-12.2 18.8-12.2 29.5s4.1 21.4 12.2 29.5l70.2 70.2 97.6 97.6c7.9 7.9 18.4 12.2 29.5 12.2 11.2 0 21.6-4.3 29.5-12.2l46.5-46.5 86.1-86.2 35.2-35.2c8.2-8.2 12.2-18.9 12.2-29.5 0-10.6-4.1-21.3-12.2-29.4"/><path d="M1794.5 162.3c19.2 1 23.7 10.7 24.8 19.5 6.8-9 19.2-44.7-27.4-54.6 0 0-12.4-2.7-17.5-3.1-2.5-.2-3.4-3.3-5.2-6.2-1.1-1.8-1.5-3.5-3.7-4.7-11.7-5.9-37.4-6.6-61.1-2.7-12.2 2-38.4 7.7-38.7 7.7.6.5 14.9 10.4 17.5 11.4-10.7 3.6-27.6 13.5-54.4 65 2.9-1.2 17.9-4.3 21-4.3l-38 77.3c-4.5 8.8-8.9 17.5-13 26l103.7 103.8c6.8 7.8 14.7 11.9 22.8 11.9 8.4 0 16.8-4.3 23.8-12.1 0 0 79.7-79 82.7-81.9 13.7-14.6-44.1-82.9-69.1-71.5-10.2 4.7-6.8 15.7-6.1 30.7-1.8.1-3 0-4-.3-3.4-1.2-3.2-5.4-3.5-9-.8-8.9-1.1-27.4-1.9-41.8-.3-4.7-.2-9.5.4-14.1 0 0 1.9-17.6 21.6-26.7 19.8-9.2 40.2-4 40.2-4-.5-6.5-4.8-9.3-14.9-9.8l-26.8-1.2c2.4-7.5 3.3-6.5 26.8-5.3zm-31.8-27.3c-.2.8-1 1.3-1.9 1.2l-7.4-.9v.3c-.4 2.9-3.5 4.9-7.5 4.9-.5 0-1-.1-1.6-.1-4.6-.6-7.9-3.7-7.5-7v-.2l-9.2-1.2c-.9-.1-1.5-.8-1.5-1.7 0-.9.6-1.6 1.4-1.8.5 0 12.6-2.1 17.7-1.6 5.2.5 16 5.8 16.5 6 .9.4 1.3 1.2 1 2.1z" fill="#fff"/></g></svg>