<?xml version="1.0" encoding="utf-8"?>
<!-- Generator: Adobe Illustrator 22.1.0, SVG Export Plug-In . SVG Version: 6.00 Build 0)  -->
<svg version="1.1" id="DKV" xmlns="http://www.w3.org/2000/svg" xmlns:xlink="http://www.w3.org/1999/xlink" x="0px" y="0px"
	 viewBox="0 0 419.2 100" style="enable-background:new 0 0 419.2 100;" xml:space="preserve">
<style type="text/css">
	.st0{fill:#98A92A;}
	.st1{fill:#095751;}
</style>
<g id="Wortmarke">
	<g>
		<path class="st0" d="M186.2,46.5V100h-42.1V47.6V47c13.8-0.6,27.9-0.9,42.1-1V46.5z"/>
		<path class="st0" d="M302.8,53.3l20.6,46.7H375l12.9-29.3v-0.5c-11.3-3.4-23.1-6.5-35.7-9.2l-0.2,0.6l-1.4,3.5L349,61l-0.2-0.5
			c-14.5-3-30.2-5.6-46.2-7.7L302.8,53.3z"/>
		<path class="st0" d="M237.9,47.5l43.2,52.5h-52.9l-39.5-53.5l0.4-0.5h1.7c15.1,0,47.4,1,47.4,1L237.9,47.5z"/>
		<path class="st0" d="M125.1,48.2c-14.1,1-28,2.2-41.4,3.8l0,0c0,0.2,0,0.4,0,0.6c-1,17-12.3,24.8-30.5,24.8H41.6v-19
			c-14.4,2.7-28.4,5.8-41.4,9.3V100H58c30.9,0,42-3.9,53.7-13.3c8.7-6.9,13.6-21.2,13.6-35.9c0-0.7,0-1.5,0-2.2L125.1,48.2z"/>
	</g>
	<g>
		<path class="st1" d="M0,68.1V0h50.6c29.5,0,48.6,2.6,62.3,16.5c6.9,7,11.7,18.2,12.2,32.2c-14.3,1-28.2,2.3-41.5,3.9
			c0-0.8,0.1-1.7,0.1-2.5c0-18.7-11.5-27.3-30.6-27.3H41.5V59C26.8,61.6,13,64.7,0,68.1z"/>
		<path class="st1" d="M188.7,46.5l36-46.5h51.9l-38.8,47.5C222.2,46.9,205.7,46.5,188.7,46.5z"/>
		<path class="st1" d="M144.1,47.6V0h42.1v46.5C171.7,46.6,157.7,46.9,144.1,47.6z"/>
		<path class="st1" d="M352,61.6L376.3,0h42.9L388,70.7C376.7,67.4,364.7,64.4,352,61.6z"/>
		<path class="st1" d="M302.8,53.3L279.3,0h46.4l23.4,61C334.6,58,319.1,55.4,302.8,53.3z"/>
	</g>
</g>
</svg>
