<?xml version="1.0" encoding="UTF-8"?><svg id="ERGO" xmlns="http://www.w3.org/2000/svg" viewBox="0 0 84.76 24.8"><defs><style>.cls-1{fill:#bf1528;}</style></defs><path class="cls-1" d="M73.12,0c-5.97,0-11.87,4.22-11.87,12.42,0,7.63,4.97,12.38,11.64,12.38,7.06,0,11.87-5.18,11.87-12.38,0-8.42-5.92-12.42-11.64-12.42ZM72.99,19.85c-3.44,0-5.99-2.87-5.99-7.44,0-4.06,2.07-7.44,5.99-7.44,4.32,0,5.99,3.99,5.99,7.44s-1.66,7.44-5.99,7.44Z"/><path class="cls-1" d="M49.83,10.37v4.75s4.07,0,4.07,0v4.19c-.34.22-1.43.53-2.88.53-4.01,0-6.32-2.92-6.32-7.43,0-4.18,1.72-7.2,6.77-7.2,2.05,0,3.79.37,5.29,1l2.02-4.66c-1.97-.96-4.19-1.54-7.66-1.54-6.99,0-12.35,4.99-12.35,12.56,0,6.72,3.94,12.22,11.91,12.22,4.06,0,7.03-1.29,8.45-2.23v-12.18h-9.3Z"/><path class="cls-1" d="M32.91,15.08v-.11c1.18-.75,2.33-1.83,3.01-2.89.77-1.19,1.12-2.59,1.12-4.03,0-1.09-.2-2.12-.59-3.08-.37-.98-.98-1.88-1.83-2.6-.83-.72-1.9-1.29-3.21-1.7-1.31-.41-2.9-.62-4.78-.62-1.42,0-2.7.07-3.83.17-1.23.11-2.07.22-3.24.41v23.75h5.56v-7.94c.68.03,1.2.03,1.94.01,0,0,.72.25,1.64,1.44,1.09,1.4,2.42,3.6,3.21,6.49h6.59c-1.45-4.2-2.95-8.1-5.59-9.31ZM30.24,11.06c-.79.61-2.02.98-3.36.98-.63,0-1.4-.03-1.77-.08v-6.84c.26-.05,1.07-.12,1.38-.13.31-.01.83-.02.96-.01,1.2.02,2.19.3,2.91.86.72.55,1.08,1.35,1.08,2.35,0,1.22-.42,2.24-1.21,2.87Z"/><path class="cls-1" d="M7.75,19.31c-1.23,0-2.18-.68-2.18-2.29v-2.57h9.13v-4.85H5.57v-4.11h10.78V.39H0v18.31c0,3.76,1.47,5.69,5.64,5.69h11.15v-5.07s-6.54,0-9.05,0Z"/></svg>