<?xml version="1.0" encoding="utf-8"?>
<!-- Generator: Adobe Illustrator 21.0.2, SVG Export Plug-In . SVG Version: 6.00 Build 0)  -->
<svg version="1.1" xmlns="http://www.w3.org/2000/svg" xmlns:xlink="http://www.w3.org/1999/xlink" x="0px" y="0px"
	 viewBox="0 0 56.7 26.2" style="enable-background:new 0 0 56.7 26.2;" xml:space="preserve">
<style type="text/css">
	.st0{fill:#FFFFFF;}
</style>
<g id="Ebene_3">
</g>
<g id="Ebene_1">
	<g>
		<path class="st0" d="M56.7,21.1c-0.1-0.1-0.3-0.1-0.5-0.1c-0.5,0-0.9,0.3-1.1,0.7v-0.4c0-0.1-0.1-0.1-0.1-0.1h-1.1
			c-0.1,0-0.1,0.1-0.1,0.1v4.6c0,0.1,0.1,0.1,0.1,0.1h1.1c0.1,0,0.1-0.1,0.1-0.1V23c0.1-0.2,0.2-0.4,0.3-0.5
			c0.2-0.1,0.4-0.2,0.6-0.2c0.2,0,0.4,0,0.6,0.1c0,0,0.1,0,0.1-0.1L56.7,21.1C56.7,21.1,56.7,21.1,56.7,21.1z M52.4,21.1h-1.1
			c-0.1,0-0.1,0.1-0.1,0.1v3c-0.1,0.2-0.2,0.4-0.3,0.5c-0.2,0.1-0.3,0.2-0.6,0.2c-0.3,0-0.5-0.1-0.6-0.2c-0.1-0.2-0.2-0.4-0.2-0.6
			v-2.8c0-0.1-0.1-0.1-0.1-0.1h-1.1c-0.1,0-0.1,0.1-0.1,0.1v3.1c0,0.6,0.2,1,0.5,1.3c0.3,0.3,0.7,0.5,1.3,0.5c0.5,0,1-0.2,1.3-0.6
			v0.3c0,0.1,0.1,0.1,0.1,0.1h1.1c0.1,0,0.1-0.1,0.1-0.1v-4.6C52.6,21.2,52.5,21.1,52.4,21.1z M19.5,23.2L19,23
			c-0.2-0.1-0.3-0.1-0.4-0.2c-0.1-0.1-0.1-0.2-0.1-0.3c0-0.1,0.1-0.2,0.2-0.3c0.1-0.1,0.3-0.1,0.5-0.1c0.5,0,0.9,0.2,1.4,0.5
			c0,0,0.1,0,0.1,0v-1.1c0,0,0,0,0,0c-0.4-0.3-1-0.4-1.5-0.4c-0.6,0-1,0.1-1.4,0.4c-0.4,0.3-0.5,0.7-0.5,1.1c0,0.4,0.1,0.7,0.4,1
			c0.2,0.2,0.6,0.4,1,0.5l0.5,0.1c0.2,0.1,0.3,0.1,0.4,0.2c0.1,0.1,0.1,0.2,0.1,0.3c0,0.3-0.2,0.4-0.7,0.4c-0.3,0-0.6-0.1-0.9-0.2
			c-0.3-0.1-0.5-0.2-0.7-0.4c0,0-0.1,0-0.1,0v1.1c0,0,0,0,0,0c0.4,0.3,1,0.5,1.7,0.5c0.6,0,1.1-0.1,1.5-0.4c0.4-0.3,0.6-0.6,0.6-1.1
			c0-0.4-0.1-0.7-0.3-0.9C20.4,23.5,20,23.3,19.5,23.2z M14.6,21c-0.6,0-1,0.2-1.3,0.6v-0.3c0-0.1-0.1-0.1-0.1-0.1H12
			c-0.1,0-0.1,0.1-0.1,0.1v4.6c0,0.1,0.1,0.1,0.1,0.1h1.1c0.1,0,0.1-0.1,0.1-0.1v-3c0.1-0.2,0.2-0.4,0.3-0.5
			c0.2-0.1,0.4-0.2,0.6-0.2c0.3,0,0.5,0.1,0.6,0.2c0.1,0.2,0.2,0.4,0.2,0.6v2.8c0,0.1,0.1,0.1,0.1,0.1h1.1c0.1,0,0.1-0.1,0.1-0.1
			v-3.1c0-0.6-0.2-1-0.5-1.3C15.5,21.2,15.1,21,14.6,21z M10.3,21.5c0.4,0.3,0.6,0.8,0.6,1.4v3c0,0.1-0.1,0.1-0.1,0.1h-1
			c-0.1,0-0.1-0.1-0.1-0.1v-0.1C9.4,25.9,9.3,26,9.1,26c-0.2,0.1-0.5,0.1-0.7,0.1c-0.5,0-0.9-0.1-1.3-0.4c-0.3-0.3-0.5-0.7-0.5-1.2
			c0-0.5,0.2-0.8,0.5-1.1C7.4,23.1,7.9,23,8.4,23c0.5,0,0.8,0.1,1.1,0.3V23c0-0.2-0.1-0.4-0.3-0.6c-0.2-0.1-0.5-0.2-0.8-0.2
			c-0.5,0-0.9,0.1-1.3,0.3c0,0-0.1,0-0.1,0v-1c0,0,0,0,0,0c0.4-0.3,1-0.4,1.6-0.4C9.4,21,9.9,21.2,10.3,21.5z M9.5,24.4
			c-0.1-0.1-0.2-0.2-0.3-0.3C9,24,8.9,23.9,8.7,23.9c-0.2,0-0.4,0.1-0.6,0.2c-0.2,0.1-0.3,0.3-0.3,0.5c0,0.2,0.1,0.3,0.3,0.5
			c0.2,0.1,0.4,0.2,0.6,0.2c0.2,0,0.4,0,0.5-0.1c0.2-0.1,0.3-0.2,0.3-0.3V24.4z M25.3,21.7c0.4,0.4,0.6,1,0.6,1.8v0.4c0,0,0,0,0,0
			h-3.1c0.1,0.4,0.2,0.7,0.5,0.9c0.3,0.2,0.6,0.3,1,0.3c0.5,0,0.9-0.1,1.3-0.4c0,0,0.1,0,0.1,0v1c0,0,0,0,0,0
			c-0.4,0.3-0.9,0.4-1.6,0.4c-0.8,0-1.4-0.2-1.8-0.7c-0.5-0.5-0.7-1.1-0.7-1.8c0-0.8,0.2-1.4,0.6-1.9c0.4-0.5,1-0.7,1.7-0.7
			C24.4,21,24.9,21.3,25.3,21.7z M24.6,23c0-0.3-0.1-0.5-0.2-0.7c-0.2-0.2-0.4-0.2-0.6-0.2c-0.5,0-0.8,0.3-1,0.9H24.6z M33.2,19.5
			h-1.1c0,0-0.1,0-0.1,0.1l-2,3.1l-2-3.1c0,0-0.1-0.1-0.1-0.1h-1.1c-0.1,0-0.1,0.1-0.1,0.1v6.2c0,0.1,0.1,0.1,0.1,0.1h1.1
			c0.1,0,0.1-0.1,0.1-0.1v-4l1.9,2.9h0l1.9-2.9v4c0,0.1,0.1,0.1,0.1,0.1h1.1c0.1,0,0.1-0.1,0.1-0.1v-6.2
			C33.4,19.6,33.3,19.5,33.2,19.5z M45.6,23.4l1.9-2.1c0-0.1,0-0.1-0.1-0.1H46c0,0,0,0-0.1,0l-1.7,1.9v-3.4c0-0.1-0.1-0.1-0.1-0.1
			h-1.1c-0.1,0-0.1,0.1-0.1,0.1v6.2c0,0.1,0.1,0.1,0.1,0.1h1.1c0.1,0,0.1-0.1,0.1-0.1v-2.1l1.8,2.2c0,0,0,0,0.1,0h1.4
			c0.1,0,0.1-0.1,0.1-0.1L45.6,23.4z M42.3,21.1C42.2,21.1,42,21,41.8,21c-0.5,0-0.9,0.3-1.1,0.7v-0.4c0-0.1-0.1-0.1-0.1-0.1h-1.1
			c-0.1,0-0.1,0.1-0.1,0.1v4.6c0,0.1,0.1,0.1,0.1,0.1h1.1c0.1,0,0.1-0.1,0.1-0.1V23c0.1-0.2,0.2-0.4,0.3-0.5
			c0.2-0.1,0.4-0.2,0.6-0.2c0.2,0,0.4,0,0.6,0.1c0,0,0.1,0,0.1-0.1L42.3,21.1C42.3,21.1,42.3,21.1,42.3,21.1z M38,21.7
			c0.4,0.4,0.6,1,0.6,1.8v0.4c0,0,0,0,0,0h-3.1c0.1,0.4,0.2,0.7,0.5,0.9c0.3,0.2,0.6,0.3,1,0.3c0.5,0,0.9-0.1,1.3-0.4
			c0,0,0.1,0,0.1,0v1c0,0,0,0,0,0c-0.4,0.3-0.9,0.4-1.6,0.4c-0.8,0-1.4-0.2-1.8-0.7c-0.5-0.5-0.7-1.1-0.7-1.8c0-0.8,0.2-1.4,0.6-1.9
			c0.4-0.5,1-0.7,1.7-0.7C37.1,21,37.7,21.3,38,21.7z M37.3,23c0-0.3-0.1-0.5-0.2-0.7c-0.2-0.2-0.4-0.2-0.6-0.2
			c-0.5,0-0.8,0.3-1,0.9H37.3z M5.6,19.5H4.5c-0.1,0-0.1,0.1-0.1,0.1v2.5h-3v-2.5c0-0.1-0.1-0.1-0.1-0.1H0.1c-0.1,0-0.1,0.1-0.1,0.1
			v6.2c0,0.1,0.1,0.1,0.1,0.1h1.1c0.1,0,0.1-0.1,0.1-0.1v-2.5h3v2.5c0,0.1,0.1,0.1,0.1,0.1h1.1c0.1,0,0.1-0.1,0.1-0.1v-6.2
			C5.8,19.6,5.7,19.5,5.6,19.5z"/>
		<circle class="st0" cx="24" cy="1.1" r="1.1"/>
		<path class="st0" d="M29.9,16.2l0.4-6.6c1.1-0.2,2.2-0.5,3-0.9v0.6c-0.6,0.4-1.3,0.6-2.1,0.8L31,13.8c0,0.1,0,0.1,0.1,0.1h2.4
			c0.1,0,0.1,0,0.1-0.1l0.6-5.4c0.4-0.5,0.7-1,0.7-1.6c0-1.9-2.6-3.5-5.8-3.5c-0.6,0-1.1,0-1.6,0.1c-0.1,0-0.1,0.1-0.1,0.1v0.7
			c0,0.1,0.1,0.1,0.1,0.1c1.5-0.2,2.7,0,3.8,0.3c0,0,0.1,0.1,0.1,0.1l-0.1,3.3c-0.8,0.2-1.8,0.3-2.7,0.3c-1.9,0-3.6-0.4-4.8-1V6.9
			c0.5,0.3,1.3,0.5,2,0.7l-0.1-4.2c0-0.1,0-0.1,0.1-0.1c1.1-0.4,2.5-0.6,4-0.6c0.1,0,0.1-0.1,0.1-0.1V1.9c0-0.1,0-0.1-0.1-0.1
			c-0.2,0-0.5,0-0.7,0c-3.9,0-7.1,1.4-7.1,3.1c0,0.4,0.2,0.9,0.6,1.2l0.8,7.8c0,0.1,0.1,0.1,0.1,0.1h2.4c0.1,0,0.1-0.1,0.1-0.1
			l-0.1-4.5c0.3,0.1,0.6,0.1,0.9,0.2l0.4,6.6c0,0.1,0.1,0.1,0.1,0.1h2.6C29.8,16.3,29.9,16.2,29.9,16.2z"/>
		<circle class="st0" cx="33.1" cy="2.4" r="1.1"/>
		<circle class="st0" cx="28.5" cy="6.8" r="1.1"/>
	</g>
</g>
</svg>
