<svg xmlns="http://www.w3.org/2000/svg" viewBox="0 0 1010 480"><path fill="#ffed00" d="M236.5 4.8a334.1 334.1 0 0 0-113 0C85.6 11.3 36.3 25.2 0 45.5v225.1S0 395.1 180 480c180-84.9 180-209.4 180-209.4V45.5c-36.3-20.3-85.6-34.2-123.5-40.7Z"/><path fill="#001631" d="M81.6 253.8h8.7v-23H57v23h8.8v17H24.3v-17h9.4v-61.4h-9.4v-17h41.4v17h-8.8v21.3h33.4v-21.3h-8.7v-17h41.3v17h-9.3v61.4h9.3v17H81.6v-17Zm102.6-.9c11.4 0 17.7-7.2 17.7-20.5v-40h-9.3v-17h40.5v17h-9.3v39.9c0 25.3-14.4 40.7-40.5 40.7S143 257.6 143 232.3v-40h-9.3v-16.9h41.9v17h-9.4v40c0 13.3 6.4 20.5 18 20.5Zm59.7.9h9.3v-61.4h-9.3v-17h39.6v16.7h-7v30.3l27.7-30.3H295v-16.7h40.2v17h-7L308 214l23.2 39.7h6.6v17h-40.6V254h9.2l-14.3-25.4-16.2 17.1v8.3h7.5v16.7h-39.6v-17ZM148.5 88l17.9-3 8.5-23.6 76.2 8.4 4 25.4 18.5 3V77.7l22.8-22.9 23 23v72.5h-8.7v-69l-14.3-14.2-14.2 14.2v27.2l-34.7-5.8-4-25-62.8-7-8 22-32.9 5.4V81.5l1-1.2a14.5 14.5 0 0 0-2.2-19.5 156 156 0 0 0-12.9-8.6c-4.9 3-11.1 7.1-12.8 8.6a14.5 14.5 0 0 0-2.1 19.5l.9 1.2v21.3l-34 5.7V81.3l-14-14.2-14.4 14.2v69h-8.6V77.7l22.9-22.9 22.8 23v20.4l16.6-2.7V84.4a23.1 23.1 0 0 1 4.2-30.1c4-3.4 18.5-12.3 18.5-12.3s14.6 8.9 18.6 12.3a23.1 23.1 0 0 1 4.2 30V88Zm156.6 208c-10.3 30.4-40 82.8-125.1 128.8-85-46-114.8-98.4-125.1-128.9h-9c10.3 32 41 89 132 137.6l2.1 1 2-1c91.2-48.6 121.8-105.5 132.1-137.6h-9Zm98.5-72.9c0-28.8 19.1-50 46.8-50 13 0 22.8 4.7 28 15v-12.7h19v36.1l-20 3.1c-1.6-13.2-11-20.8-23.8-20.8-15.6 0-26.2 11.3-26.2 29.3s10.1 29.3 27 29.3c10.4 0 18.7-4.2 24.9-13l16.8 12.9a48.6 48.6 0 0 1-42.2 20.7c-31.2 0-50.3-21.1-50.3-49.9Zm101.4 0c0-28.9 18.5-50 51.1-50s51.2 21.1 51.2 50-18.6 50-51.2 50-51.2-21-51.2-50Zm51.1 29.5c17.4 0 27.4-11.7 27.4-29.5 0-17.6-10-29.5-27.4-29.5s-27.3 11.9-27.3 29.5c0 17.8 10 29.5 27.3 29.5Zm59.5 1.2h9.3v-61.4h-9.3v-17H661c22.5 0 35.5 9 35.5 25.4a21 21 0 0 1-12.1 19.8 22 22 0 0 1 16.3 22.5c0 18.6-14.6 27.7-37.5 27.7h-47.5v-17Zm45.6-39.9c7.3 0 11.8-4 11.8-10.5s-4.5-10.6-11.8-10.6h-13.6v21.1h13.6Zm3.2 39.5c8.2 0 12.4-5 12.4-11.5 0-7.1-4.4-11.6-12.4-11.6h-16.8v23.1h16.8Zm92.9-.5c11.5 0 17.8-7.2 17.8-20.5v-40h-9.3v-17h40.5v17H797v39.9c0 25.3-14.4 40.7-40.5 40.7s-40.3-15.4-40.3-40.7v-40h-9.4v-16.9h42v17h-9.4v40c0 13.3 6.4 20.5 18 20.5Zm59.1.9h9.3v-61.4h-9.3v-17h48c22.5 0 36.2 9.6 36.2 28.8 0 13-6.6 21.2-18.2 25.2l14.4 24.4h8.4v17h-39.6v-16.5h7.2l-12-22h-12.4v22h6.5v16.5h-38.5v-17Zm48.5-38.3c7.8 0 12-4.2 12-11.2s-4.2-11.7-12-11.7h-16.5v22.9H865Zm96.9 3.2h48.2v3.6c0 31.7-18 50.7-48.4 50.7-31.1 0-50.3-20.9-50.3-49.9s19.2-50 46.8-50c13.8 0 24.7 5 30.3 15.9v-13.6h19v32l-20.7 3.2c-2.8-10-11.2-17-24.8-17-16.6 0-26.8 11.9-26.8 29.5 0 17.8 10 29.5 27.8 29.5 12.6 0 21.4-6.2 24.8-16.2h-26v-17.7Z"/></svg>