<?xml version="1.0" encoding="UTF-8"?>
<svg width="356px" height="86px" viewBox="0 0 356 86" version="1.1" xmlns="http://www.w3.org/2000/svg" xmlns:xlink="http://www.w3.org/1999/xlink">
    <!-- Generator: Sketch 63.1 (92452) - https://sketch.com -->
    <title>logo-standard</title>
    <desc>Created with Sketch.</desc>
    <g id="0---STARTSEITE-DESIGN" stroke="none" stroke-width="1" fill="none" fill-rule="evenodd">
        <g id="0.1.1-Starter-Desktop" transform="translate(-538.000000, -25.000000)">
            <g id="HEADER/Standard-1440">
                <g id="HEADER-V2">
                    <g id="logo-standard" transform="translate(538.000000, 25.000000)">
                        <g id="Group-68" transform="translate(0.000000, 0.597222)">
                            <polygon id="Fill-1" fill="#ffb800" points="1.21867851 47.7614247 15.9826487 47.7614247 22.2631948 56.674152 29.1530475 47.5262278 43.30706 47.5262278 43.30706 83.3185157 29.3867453 83.3185157 29.1530475 64.2734247 22.2631948 71.356046 15.4670815 63.4753187 15.4670815 83.3185157 1.49989699 83.3185157"></polygon>
                            <polygon id="Fill-2" fill="#434343" points="27.8874993 46.2601384 22.2631297 54.3760626 16.6856298 46.2601384 0 46.2601384 0 84.8187596 16.6856298 84.8187596 16.6856298 66.8069717 22.2631297 73.655699 22.2631297 69.8554111 14.435882 60.1921384 14.435882 82.5208657 2.24974784 82.5208657 2.24974784 48.5124263 14.9514492 48.5124263 22.2631297 58.6910475 29.6216799 48.5124263 42.3233812 48.5124263 42.3233812 82.5208657 30.1372471 82.5208657 30.1372471 60.1921384 22.2631297 69.8554111 22.2631297 73.655699 27.8874993 67.0408657 27.8874993 84.8187596 44.6199988 84.8187596 44.6199988 46.2601384"></polygon>
                            <polygon id="Fill-3" fill="#434343" points="0 44.2433081 5.29628137 44.2433081 5.29628137 30.4989444 0 30.4989444"></polygon>
                            <polygon id="Fill-4" fill="#434343" points="6.51489478 44.2433081 11.8580459 44.2433081 11.8580459 20.3665808 6.51489478 20.3665808"></polygon>
                            <polygon id="Fill-5" fill="#434343" points="13.0766593 44.2433081 18.4198104 44.2433081 18.4198104 10.1873081 13.0766593 10.1873081"></polygon>
                            <polygon id="Fill-6" fill="#434343" points="19.6384238 44.2433081 24.9347052 44.2433081 24.9347052 0.0549444444 19.6384238 0.0549444444"></polygon>
                            <polygon id="Fill-7" fill="#434343" points="26.1533186 44.2433081 31.4964697 44.2433081 31.4964697 10.1873081 26.1533186 10.1873081"></polygon>
                            <polygon id="Fill-8" fill="#434343" points="32.7150832 44.2433081 38.0582343 44.2433081 38.0582343 20.3665808 32.7150832 20.3665808"></polygon>
                            <polygon id="Fill-9" fill="#434343" points="39.2768477 44.2426566 44.5731291 44.2426566 44.5731291 30.4982929 39.2768477 30.4982929"></polygon>
                            <path d="M299.564796,51.0444747 C296.424523,49.7785808 294.784082,49.637202 291.831288,49.637202 C288.316057,49.637202 284.332128,51.3259293 284.425868,54.8441111 C284.425868,58.5036717 288.550405,59.7702172 290.097107,59.9109444 C292.299985,60.192399 292.346855,62.8186566 289.112842,61.9749444 C287.284922,61.5527626 286.488137,60.4262929 285.9257,59.7702172 L283.816561,64.4604747 C286.863095,65.7276717 288.550405,66.2430202 292.299985,66.384399 C296.190174,66.5244747 299.985973,64.6018535 300.080363,60.8491263 C300.080363,59.0190202 298.486792,56.9081111 296.049565,56.1575657 C294.596603,55.7360354 292.346855,55.5477475 292.768683,54.2342929 C292.956162,53.5306566 294.971561,53.0153081 297.549397,55.3138535 C297.549397,55.3138535 299.517926,51.0913838 299.564796,51.0444747" id="Fill-10" fill="#434343"></path>
                            <path d="M263.240872,57.658852 C262.350347,58.5038672 260.475557,58.2211096 260.475557,56.3453975 C260.475557,54.7511399 261.83478,54.4214732 263.240872,54.7511399 C263.240872,54.7511399 263.287091,57.6119429 263.240872,57.658852 L263.100263,61.3171096 C262.771524,61.4584884 261.459822,62.1152157 259.303814,62.020746 C255.976062,61.8806702 253.491314,59.8173217 253.491314,56.1571096 C253.491314,52.6871399 254.898058,49.8725944 261.366083,49.8725944 L271.536818,49.8725944 L271.536818,63.1003066 C271.536818,71.074852 261.272343,72.2951399 253.491314,68.0257611 L253.491314,60.5678672 C257.287764,64.5075793 263.381482,64.0391399 263.100263,61.3171096 L263.240872,57.658852 Z" id="Fill-12" fill="#434343"></path>
                            <path d="M274.067654,65.9147869 L282.316729,65.9147869 L282.316729,49.8725293 C279.738893,51.0915141 276.926708,51.279802 274.067654,49.8725293 L274.067654,65.9147869 Z" id="Fill-14" fill="#434343"></path>
                            <path d="M275.66142,46.8694354 C275.66142,45.5090717 276.692555,44.4770717 278.051778,44.4770717 C279.363479,44.4770717 280.442135,45.5090717 280.442135,46.8694354 C280.442135,48.1841929 279.363479,49.261799 278.051778,49.261799 C276.692555,49.261799 275.66142,48.1841929 275.66142,46.8694354" id="Fill-16" fill="#434343"></path>
                            <path d="M236.05655,49.8725293 L244.258755,49.8725293 L244.258755,52.7802414 C247.117159,47.5257717 252.414091,49.6373323 252.5547,53.6252566 C252.69531,56.3459838 249.694995,59.4888929 245.477369,56.2515141 C244.351844,57.1890444 244.258755,58.9253323 244.258755,60.4264232 L244.258755,65.9147869 L236.05655,65.9147869 L236.05655,49.8725293 Z" id="Fill-18" fill="#434343"></path>
                            <polygon id="Fill-20" fill="#434343" points="144.52026 65.9146566 152.722466 65.9146566 152.722466 46.1659293 144.52026 46.1659293"></polygon>
                            <path d="M131.208991,46.1657338 L123.054307,46.1657338 L123.054307,65.9144611 L131.208991,65.9144611 L131.208991,58.1282035 C132.240126,58.3151884 134.349265,59.7700217 134.256176,65.9144611 C134.256176,65.9620217 142.410861,65.9144611 142.410861,65.9144611 C142.879558,61.0359157 141.379726,58.362749 139.176848,56.4857338 C140.95855,55.5006429 142.59834,53.0157641 142.410861,49.8722035 L134.068697,49.8722035 C134.068697,52.6404914 132.568214,54.7514005 131.208991,55.1253702 L131.208991,46.1657338 Z" id="Fill-22" fill="#434343"></path>
                            <path d="M121.132321,57.9871505 C121.132321,57.9871505 121.17854,50.9514384 121.132321,50.9514384 C113.820641,47.9486051 105.805914,51.4667869 105.899654,58.2686051 C106.087133,67.4634384 117.429611,67.5566051 121.132321,65.4450444 C121.17854,65.4450444 121.17854,58.6438778 121.132321,58.6907869 C119.726229,59.3006051 114.242469,60.2394384 114.336208,58.1754384 C114.429948,55.9700596 119.773099,57.2835141 121.132321,57.9871505" id="Fill-23" fill="#434343"></path>
                            <path d="M95.7286584,56.3927626 L99.4313683,56.3927626 C99.4782381,55.1724747 98.6814524,54.1873838 97.6034482,54.2342929 C96.5254441,54.2342929 95.6817886,55.032399 95.7286584,56.3927626 L96.2910953,59.160399 C96.8066625,62.2094899 102.149814,62.5847626 104.540171,59.8640354 C104.58704,59.8171263 104.540171,62.7717475 104.540171,62.7717475 C100.415633,69.0575657 87.479583,67.3694899 87.479583,58.0345808 C87.5264527,53.1084747 91.3697719,50.1538535 95.6349189,49.872399 C100.087545,49.637202 104.774519,52.5931263 104.493301,59.160399 L96.2910953,59.160399 L95.7286584,56.3927626 Z" id="Fill-24" fill="#434343"></path>
                            <polygon id="Fill-25" fill="#434343" points="61.6544827 46.1657338 70.5122139 46.1657338 73.8406169 50.2481278 77.3089781 46.1657338 86.0736207 46.1657338 86.0736207 65.9144611 77.3089781 65.9144611 77.3089781 56.1573702 73.8406169 59.7700217 70.5122139 56.1573702 70.5122139 65.9144611 61.6544827 65.9144611"></polygon>
                            <path d="M181.312295,49.8725293 L172.876392,49.8725293 L172.876392,65.9147869 L181.078597,65.9147869 L181.078597,55.0794384 C182.343429,54.1875141 184.03074,54.8442414 184.03074,56.3459838 L184.03074,65.9147869 C187.030404,65.9147869 191.764899,65.961696 191.764899,65.9147869 C191.764899,65.9147869 191.717379,57.9871505 191.717379,54.5627869 C191.764899,50.0126051 185.203135,47.9486051 181.171686,51.6537717 C181.124816,51.7013323 181.359165,49.8725293 181.312295,49.8725293" id="Fill-26" fill="#434343"></path>
                            <path d="M225.182703,65.9618914 L233.619258,65.9618914 L233.619258,49.8727247 L225.370182,49.8727247 L225.370182,60.7549823 C224.104699,61.6469066 222.417388,60.9888763 222.417388,59.4884369 L222.417388,49.8727247 L214.730099,49.8727247 C214.730099,49.8727247 214.77762,57.8472702 214.730099,61.2716338 C214.68388,65.8205126 221.244994,67.8845126 225.276443,64.179346 C225.323313,64.1317854 225.135834,65.9618914 225.182703,65.9618914" id="Fill-27" fill="#434343"></path>
                            <path d="M162.236764,56.1573051 L165.939474,56.1573051 C165.986343,54.9383202 165.189558,53.9063202 164.111554,53.9532293 C163.033549,54.0001384 162.236764,54.7513354 162.236764,56.1573051 L162.799201,58.9249414 C163.314768,61.9753354 168.657919,62.3493051 171.048276,59.6285778 C171.095146,59.5816687 171.048276,62.5375929 171.048276,62.5375929 C166.923738,68.8234111 153.987688,67.0877747 154.034431,57.7997747 C154.034431,52.8274111 157.877877,49.8727899 162.143024,49.6369414 C166.59565,49.4030475 171.282625,52.3576687 171.001406,58.9249414 L162.799201,58.9249414 L162.236764,56.1573051 Z" id="Fill-28" fill="#434343"></path>
                            <path d="M202.122267,56.5798126 C203.997708,55.6891914 205.21567,56.4853429 205.21567,58.0815551 C205.21567,59.6758126 203.810229,60.0510854 202.122267,59.7227217 C202.076048,59.7227217 202.122267,56.5798126 202.122267,56.5798126 L202.122267,50.3409035 C207.840376,48.4182823 213.042918,51.7481763 213.090439,57.5649035 C213.183527,63.6637369 207.371679,65.9147217 204.559494,65.9147217 L194.155061,65.9147217 L194.155061,46.1659944 L202.122267,46.1659944 L202.122267,50.3409035 L202.122267,56.5798126 Z" id="Fill-29" fill="#434343"></path>
                            <path d="M326.421096,46.1657338 L318.078932,46.1657338 L318.078932,65.9144611 L326.327356,65.9144611 L326.327356,55.0797641 C327.592839,54.1878399 329.28015,54.8439157 329.28015,56.3456581 L329.28015,65.9144611 C332.279814,65.9144611 337.013658,65.9620217 337.013658,65.9144611 C337.013658,65.9144611 336.919919,57.9874763 336.966789,54.515552 C337.013658,49.9653702 330.451894,47.9482793 326.421096,51.6540975 C326.374226,51.6540975 326.421096,46.1657338 326.421096,46.1657338" id="Fill-30" fill="#434343"></path>
                            <path d="M346.762566,55.8290066 L350.418406,55.8290066 C350.465276,54.6100217 349.66849,53.6249308 348.590486,53.6249308 C347.512482,53.6718399 346.668826,54.4217338 346.762566,55.8290066 L347.278133,58.5966429 C347.7937,61.6470369 353.183721,62.0210066 355.527208,59.3002793 L355.527208,62.2092944 C351.402671,68.4951126 338.419751,66.8070369 338.51349,57.4714763 C338.51349,52.4991126 342.403679,49.5444914 346.621956,49.355552 C351.074582,49.074749 355.761557,52.0293702 355.527208,58.5966429 L347.278133,58.5966429 L346.762566,55.8290066 Z" id="Fill-31" fill="#434343"></path>
                            <path d="M316.39084,57.7530611 C316.39084,57.7530611 316.437709,50.6691369 316.39084,50.6691369 C309.032289,47.7145157 301.017563,51.2326975 301.158823,57.9869551 C301.346302,67.228046 312.688781,67.3225157 316.39084,65.2109551 C316.437709,65.2109551 316.437709,58.4097884 316.39084,58.4097884 C314.938529,59.0189551 309.454768,60.004046 309.547857,57.940046 C309.688466,55.7359702 315.031617,57.0494247 316.39084,57.7530611" id="Fill-32" fill="#434343"></path>
                            <polygon id="Fill-34" fill="#434343" points="60.8486486 77.1697111 63.0046569 84.7676808 65.6293627 84.7676808 67.7853711 77.1697111 65.8174927 77.1697111 64.6450981 82.0476051 64.5044888 82.6111657 64.3638796 83.314802 64.2232703 82.5642566 64.0826611 82.0013475 62.8640477 77.122802"></polygon>
                            <polygon id="Fill-35" fill="#434343" points="77.5811481 77.1697111 77.5811481 84.7676808 82.596211 84.7676808 82.596211 83.5962566 79.5496775 83.5962566 79.5496775 81.4377869 82.034425 81.4377869 82.034425 80.218802 79.5496775 80.218802 79.5496775 78.3417869 82.3149925 78.3417869 82.3149925 77.1697111"></polygon>
                            <polygon id="Fill-36" fill="#434343" points="124.872723 84.7675505 126.841903 84.7675505 126.841903 77.1695808 124.872723 77.1695808"></polygon>
                            <polygon id="Fill-37" fill="#434343" points="158.150243 77.1697111 158.150243 80.1718929 155.806755 80.1718929 155.806755 77.1697111 153.838226 77.1697111 153.838226 84.7676808 155.806755 84.7676808 155.806755 81.3908778 158.150243 81.3908778 158.150243 84.7676808 160.071902 84.7676808 160.071902 77.1697111"></polygon>
                            <polygon id="Fill-38" fill="#434343" points="170.664465 77.1697111 170.664465 84.7676808 175.679528 84.7676808 175.679528 83.5962566 172.632994 83.5962566 172.632994 81.4377869 175.117091 81.4377869 175.117091 80.218802 172.632994 80.218802 172.632994 78.3417869 175.398309 78.3417869 175.398309 77.1697111"></polygon>
                            <polygon id="Fill-39" fill="#434343" points="223.767888 77.1697111 223.767888 81.0625141 223.814758 82.516696 223.533539 81.7192414 223.111711 80.9680444 221.237573 77.1697111 218.940304 77.1697111 218.940304 84.7676808 220.674485 84.7676808 220.674485 80.5002566 220.628266 79.5151657 221.096312 80.6396808 223.205451 84.7676808 225.454548 84.7676808 225.454548 77.1697111"></polygon>
                            <polygon id="Fill-40" fill="#434343" points="350.410529 77.1697111 350.410529 84.7676808 355.378722 84.7676808 355.378722 83.5962566 352.331538 83.5962566 352.331538 81.4377869 354.862504 81.4377869 354.862504 80.218802 352.331538 80.218802 352.331538 78.3417869 355.096853 78.3417869 355.096853 77.1697111"></polygon>
                            <path d="M94.5411613,80.5719884 L95.1224763,80.5719884 C95.5091517,80.5719884 95.9928215,80.5719884 96.2838045,80.3459126 C96.4341782,80.2279884 96.6704799,79.9367611 96.6704799,79.3341096 C96.6704799,79.1295338 96.6489979,78.9353823 96.5741365,78.7640338 C96.3267684,78.1933066 95.8209657,78.1933066 95.2077532,78.1822308 L94.5411613,78.1822308 L94.5411613,80.5719884 Z M98.6071118,83.2744732 C98.8225824,84.3077763 98.8870283,84.4915035 99.1448119,84.7710035 L97.1229031,84.7710035 C96.8644686,84.5345035 96.8540531,84.4915035 96.6281669,83.436049 L96.56307,83.1024732 C96.4556602,82.5858217 96.3697323,82.2196702 96.1549127,81.9610187 C95.8424477,81.5844429 95.4225729,81.5733672 95.1003434,81.5733672 L94.5411613,81.5733672 L94.5411613,84.7710035 L92.6266623,84.7710035 L92.6266623,77.1697763 L96.1008823,77.1697763 C96.6489979,77.1697763 97.3377228,77.1697763 97.8650075,77.5255035 C98.5960453,78.0206551 98.6071118,78.8389581 98.6071118,79.1191096 C98.6071118,80.7335641 97.4568501,80.9492157 97.0369753,81.0241399 C98.0160322,81.2182914 98.2523338,81.7134429 98.4997019,82.8438217 L98.6071118,83.2744732 Z" id="Fill-41" fill="#434343"></path>
                            <path d="M111.17901,81.5753217 C110.041117,81.2091702 108.881741,80.833246 108.881741,79.3288975 C108.881741,77.029049 111.264938,77.029049 111.823469,77.029049 C112.199078,77.029049 112.510892,77.0616247 112.790157,77.1046247 C114.346624,77.373049 114.551028,78.426549 114.518479,79.2428975 L112.822055,79.222049 C112.822055,78.9099732 112.811639,78.5444732 112.542789,78.2864732 C112.370934,78.1366247 112.091668,78.039549 111.780505,78.039549 C111.104149,78.039549 110.695991,78.426549 110.695991,78.9308217 C110.695991,79.5543217 111.275353,79.7478217 111.973843,79.9849732 L112.532374,80.1673975 C113.444381,80.4573217 114.690986,80.8658217 114.690986,82.4568217 C114.690986,82.854246 114.625889,83.241246 114.4651,83.5845944 C113.852538,84.8635187 112.424964,84.9384429 111.716059,84.9384429 C111.200492,84.9384429 110.835949,84.8960944 110.556684,84.8420187 C108.666922,84.4875944 108.655855,83.1441702 108.655855,82.4880944 L110.502653,82.510246 C110.502653,82.8105944 110.502653,83.2725187 110.813817,83.5956702 C110.975257,83.7670187 111.28642,83.9285944 111.716059,83.9285944 C112.478343,83.9285944 112.886501,83.4770944 112.886501,82.854246 C112.886501,82.144746 112.370934,81.972746 111.608649,81.7251702 L111.17901,81.5753217 Z" id="Fill-43" fill="#434343"></path>
                            <path d="M143.808165,82.2408444 C143.775617,82.7249202 143.711822,83.7797232 142.667668,84.4481778 C142.055107,84.8351778 141.226423,84.9752535 140.354776,84.9752535 C139.989583,84.9752535 138.590651,84.9752535 137.805583,84.0390263 C137.117509,83.2415717 137.106442,81.8851172 137.106442,81.1208899 C137.106442,78.8816323 137.644143,77.0293747 140.645759,77.0293747 C143.668207,77.0293747 143.700755,78.9357081 143.700755,79.7748596 L141.796672,79.7748596 C141.828569,78.7956323 141.538237,78.0418293 140.602144,78.0418293 C139.365304,78.0418293 139.129002,79.3448596 139.129002,81.2068899 C139.129002,82.714496 139.290442,83.9634505 140.516217,83.9634505 C141.688611,83.9634505 141.796672,82.7685717 141.828569,82.2408444 L143.808165,82.2408444 Z" id="Fill-45" fill="#434343"></path>
                            <path d="M187.624869,80.5719884 L188.206184,80.5719884 C188.59351,80.5719884 189.077831,80.5719884 189.368163,80.3459126 C189.519188,80.2279884 189.755489,79.9367611 189.755489,79.3341096 C189.755489,79.1295338 189.734007,78.9353823 189.657844,78.7640338 C189.411127,78.1933066 188.905324,78.1933066 188.292112,78.1822308 L187.624869,78.1822308 L187.624869,80.5719884 Z M191.692121,83.2744732 C191.906941,84.3077763 191.972038,84.4915035 192.229821,84.7710035 L190.207262,84.7710035 C189.948827,84.5345035 189.93776,84.4915035 189.712525,83.436049 L189.647428,83.1024732 C189.539368,82.5858217 189.454742,82.2196702 189.239271,81.9610187 C188.926806,81.5844429 188.506931,81.5733672 188.184051,81.5733672 L187.624869,81.5733672 L187.624869,84.7710035 L185.71037,84.7710035 L185.71037,77.1697763 L189.18459,77.1697763 C189.734007,77.1697763 190.422081,77.1697763 190.949366,77.5255035 C191.680404,78.0206551 191.692121,78.8389581 191.692121,79.1191096 C191.692121,80.7335641 190.540557,80.9492157 190.120683,81.0241399 C191.09974,81.2182914 191.336041,81.7134429 191.58406,82.8438217 L191.692121,83.2744732 Z" id="Fill-47" fill="#434343"></path>
                            <path d="M208.37072,77.1699717 L208.37072,81.7677141 C208.37072,82.1872899 208.37072,82.6179414 208.274377,83.0270929 C208.04784,84.038896 207.380597,84.9327747 205.132151,84.9327747 C204.498108,84.9327747 203.465671,84.8676232 202.841392,84.3405475 C202.06674,83.694896 202.06674,82.7254414 202.06674,82.0257141 L202.06674,77.1699717 L204.024853,77.1699717 L204.024853,81.9612141 C204.035269,82.6290172 204.056751,83.0381687 204.228607,83.3280929 C204.444728,83.6623202 204.831404,83.8128202 205.229146,83.8128202 C205.91787,83.8128202 206.18672,83.4258202 206.229684,83.3606687 C206.444504,83.0479414 206.465986,82.5638657 206.477703,81.9612141 L206.477703,77.1699717 L208.37072,77.1699717 Z" id="Fill-49" fill="#434343"></path>
                            <path d="M242.321538,84.8029929 L240.546346,84.8029929 L240.546346,84.2433414 C240.407039,84.3827657 240.288562,84.5124172 240.019061,84.6524929 C239.56794,84.8994172 239.051722,84.9756444 238.534202,84.9756444 C237.156752,84.9756444 236.555908,84.2974172 236.394467,84.0817657 C235.716809,83.2738869 235.673194,81.9285081 235.673194,81.1102051 C235.673194,78.2572202 236.716046,77.0291141 239.21186,77.0291141 C239.72938,77.0291141 240.69672,77.0616899 241.374378,77.5679172 C242.256441,78.2142202 242.278574,79.215599 242.278574,79.6247505 L240.416803,79.6247505 C240.416803,79.323099 240.428521,78.0415687 239.189727,78.0415687 C237.911225,78.0415687 237.781031,79.4195232 237.738067,80.0117505 C237.706169,80.4430535 237.684687,80.8300535 237.684687,81.1851293 C237.684687,82.8217354 237.952887,83.9631899 239.189727,83.9631899 C239.589422,83.9631899 239.9442,83.8231141 240.168784,83.6081141 C240.535279,83.2738869 240.535279,82.8543111 240.546346,82.4881596 L240.546346,81.8210081 L239.297788,81.8210081 L239.297788,80.7544778 L242.321538,80.7544778 L242.321538,84.8029929 Z" id="Fill-51" fill="#434343"></path>
                            <path d="M254.934056,81.583596 C253.793559,81.2174444 252.63158,80.8408687 252.63158,79.3339141 C252.63158,77.0295051 255.020635,77.0295051 255.578515,77.0295051 C255.956077,77.0295051 256.267891,77.0620808 256.547808,77.1050808 C258.107529,77.3741566 258.311933,78.4289596 258.279384,79.2472626 L256.579054,79.2257626 C256.579054,78.9136869 256.56929,78.5475354 256.299788,78.2888838 C256.127933,78.1383838 255.848016,78.0413081 255.536853,78.0413081 C254.859195,78.0413081 254.449735,78.4289596 254.449735,78.9351869 C254.449735,79.5599899 255.0304,79.7534899 255.730191,79.9906414 L256.289373,80.1737172 C257.203333,80.4636414 258.451891,80.8727929 258.451891,82.466399 C258.451891,82.8651263 258.387445,83.2527778 258.226005,83.5974293 C257.612792,84.8783081 256.181312,84.9538838 255.471756,84.9538838 C254.955538,84.9538838 254.589694,84.9102323 254.309777,84.8568081 C252.41676,84.5017323 252.405043,83.155702 252.405043,82.4989747 L254.256398,82.5198232 C254.256398,82.8214747 254.256398,83.284702 254.568212,83.6078535 C254.729652,83.7798535 255.040815,83.9414293 255.471756,83.9414293 C256.235994,83.9414293 256.644151,83.4892778 256.644151,82.8651263 C256.644151,82.1543232 256.127933,81.9816717 255.363695,81.734096 L254.934056,81.583596 Z" id="Fill-54" fill="#434343"></path>
                            <path d="M275.035254,84.8029929 L273.260062,84.8029929 L273.260062,84.2433414 C273.120755,84.3827657 273.002278,84.5124172 272.732777,84.6524929 C272.281656,84.8994172 271.765438,84.9756444 271.24922,84.9756444 C269.87177,84.9756444 269.269624,84.2974172 269.108184,84.0817657 C268.430525,83.2738869 268.38691,81.9285081 268.38691,81.1102051 C268.38691,78.2572202 269.431064,77.0291141 271.926878,77.0291141 C272.443096,77.0291141 273.411738,77.0616899 274.089396,77.5679172 C274.970157,78.2142202 274.99229,79.215599 274.99229,79.6247505 L273.131821,79.6247505 C273.131821,79.323099 273.142237,78.0415687 271.904745,78.0415687 C270.624941,78.0415687 270.496049,79.4195232 270.453085,80.0117505 C270.419886,80.4430535 270.398404,80.8300535 270.398404,81.1851293 C270.398404,82.8217354 270.667905,83.9631899 271.904745,83.9631899 C272.303138,83.9631899 272.657916,83.8231141 272.883802,83.6081141 C273.250297,83.2738869 273.250297,82.8543111 273.260062,82.4881596 L273.260062,81.8210081 L272.012806,81.8210081 L272.012806,80.7544778 L275.035254,80.7544778 L275.035254,84.8029929 Z" id="Fill-56" fill="#434343"></path>
                            <path d="M287.361672,80.5719884 L287.942987,80.5719884 C288.330313,80.5719884 288.813332,80.5719884 289.104966,80.3459126 C289.254689,80.2279884 289.49099,79.9367611 289.49099,79.3341096 C289.49099,79.1295338 289.469508,78.9353823 289.394647,78.7640338 C289.14793,78.1933066 288.642127,78.1933066 288.028914,78.1822308 L287.361672,78.1822308 L287.361672,80.5719884 Z M291.427622,83.2744732 C291.643744,84.3077763 291.707539,84.4915035 291.965322,84.7710035 L289.944064,84.7710035 C289.68563,84.5345035 289.674563,84.4915035 289.449328,83.436049 L289.384231,83.1024732 C289.27617,82.5858217 289.190243,82.2196702 288.975423,81.9610187 C288.663609,81.5844429 288.243734,81.5733672 287.920854,81.5733672 L287.361672,81.5733672 L287.361672,84.7710035 L285.447173,84.7710035 L285.447173,77.1697763 L288.921393,77.1697763 C289.469508,77.1697763 290.158884,77.1697763 290.686169,77.5255035 C291.417207,78.0206551 291.427622,78.8389581 291.427622,79.1191096 C291.427622,80.7335641 290.27736,80.9492157 289.857486,81.0241399 C290.836542,81.2182914 291.072844,81.7134429 291.320863,82.8438217 L291.427622,83.2744732 Z" id="Fill-59" fill="#434343"></path>
                            <path d="M308.110062,77.1699717 L308.110062,81.7677141 C308.110062,82.1872899 308.110062,82.6179414 308.012417,83.0270929 C307.787182,84.038896 307.119939,84.9327747 304.871493,84.9327747 C304.237449,84.9327747 303.203711,84.8676232 302.580734,84.3405475 C301.804779,83.694896 301.804779,82.7254414 301.804779,82.0257141 L301.804779,77.1699717 L303.762893,77.1699717 L303.762893,81.9612141 C303.774611,82.6290172 303.796093,83.0381687 303.967948,83.3280929 C304.182768,83.6623202 304.570745,83.8128202 304.968487,83.8128202 C305.657212,83.8128202 305.926062,83.4258202 305.969026,83.3606687 C306.183846,83.0479414 306.205328,82.5638657 306.215743,81.9612141 L306.215743,77.1699717 L308.110062,77.1699717 Z" id="Fill-61" fill="#434343"></path>
                            <path d="M320.636067,81.0033566 L321.281828,81.0033566 C322.003101,81.0033566 322.637145,80.9069323 322.637145,79.560902 C322.637145,78.2155232 321.906107,78.1829475 321.281828,78.1829475 L320.636067,78.1829475 L320.636067,81.0033566 Z M320.636067,82.0158111 L320.636067,84.7717202 L318.677953,84.7717202 L318.677953,77.1704929 L321.788282,77.1704929 C322.174306,77.1704929 322.540801,77.1600687 322.917061,77.2245687 C323.831021,77.3861444 324.573777,77.9464475 324.573777,79.5283263 C324.573777,80.2827808 324.401921,81.0574323 323.821257,81.5317354 C323.239942,82.0047354 322.357879,82.0158111 321.680221,82.0158111 L320.636067,82.0158111 Z" id="Fill-63" fill="#434343"></path>
                            <path d="M336.525041,81.0033566 L337.170802,81.0033566 C337.892076,81.0033566 338.526119,80.9069323 338.526119,79.560902 C338.526119,78.2155232 337.795081,78.1829475 337.170802,78.1829475 L336.525041,78.1829475 L336.525041,81.0033566 Z M336.525041,82.0158111 L336.525041,84.7717202 L334.568229,84.7717202 L334.568229,77.1704929 L337.677256,77.1704929 C338.06328,77.1704929 338.429776,77.1600687 338.806036,77.2245687 C339.719996,77.3861444 340.462751,77.9464475 340.462751,79.5283263 C340.462751,80.2827808 340.290895,81.0574323 339.710231,81.5317354 C339.128916,82.0047354 338.246854,82.0158111 337.569195,82.0158111 L336.525041,82.0158111 Z" id="Fill-65" fill="#434343"></path>
                        </g>
                    </g>
                </g>
            </g>
        </g>
    </g>
</svg>